<svg width="247" height="93" viewBox="0 0 247 93" fill="none" xmlns="http://www.w3.org/2000/svg">
<rect y="18" width="19.7037" height="20.4074" rx="9.07254" fill="#DC0005"/>
<rect y="40.5185" width="19.7037" height="34.4815" rx="9.07254" fill="#EF3B2C"/>
<rect x="21.8148" y="18" width="19" height="57" rx="9.07254" fill="#E7000B"/>
<rect x="42.9258" y="18" width="19" height="57" rx="9.07254" fill="#A4161A"/>
<rect x="42.9259" y="18" width="19" height="31.6667" rx="9.07254" fill="#EF3B2C"/>
<path d="M96.0786 71.6487C86.6075 71.6487 81.2233 67.497 81.2882 59.518H90.7592C91.0836 62.3074 92.6404 63.7346 96.1434 63.7346C98.9328 63.7346 100.619 62.7615 100.619 60.9452C100.619 59.7775 99.9059 58.8693 98.0895 58.6098L91.9269 57.2476C84.5317 55.6907 82.1315 51.6687 82.1315 47.1927C82.1315 40.5111 87.9049 36.6189 96.2732 36.6189C105.614 36.6189 110.35 41.2895 110.35 48.7496H101.528C101.138 45.6358 99.2572 44.533 96.4029 44.533C93.6784 44.533 92.4458 45.5061 92.4458 46.9332C92.4458 48.3604 93.5486 49.3334 95.365 49.5929L101.787 51.02C106.977 52.1228 111.582 54.5879 111.582 60.6857C111.582 68.2106 104.577 71.6487 96.0786 71.6487ZM131.745 71.6487C123.377 71.6487 114.554 67.1078 114.554 54.0041C114.554 41.4193 122.728 36.6189 131.745 36.6189C140.437 36.6189 148.092 40.9652 148.092 54.1338C148.092 55.3663 148.027 56.015 147.898 56.7935H124.609C125.193 61.7236 127.788 63.6048 131.939 63.6048C136.286 63.6048 137.713 61.7885 138.297 59.5829H147.638C146.081 67.3673 140.048 71.6487 131.745 71.6487ZM124.674 50.6308H138.037C137.843 47.7117 136.351 44.6628 131.485 44.6628C127.528 44.6628 125.323 46.7386 124.674 50.6308ZM151.868 75.1517C158.874 76.0599 160.366 73.4651 160.95 72.2325C161.663 70.5459 161.598 69.5729 160.755 67.5619L148.495 37.2676H159.328L166.528 57.4422L173.924 37.2676H184.822L171.199 70.5459C166.658 81.7035 162.312 85.2065 151.868 84.1037V75.1517ZM191.621 35.6459C191.621 27.7966 196.227 24.5531 203.363 24.5531H208.812V32.597H205.893C203.168 32.597 202.26 34.3485 202.26 36.7487V37.2676H208.617V45.4412H202.26V71H191.621V45.4412H186.821V37.2676H191.621V35.6459ZM227.971 71.6487C219.409 71.6487 210.846 66.524 210.846 54.1338C210.846 41.7436 219.409 36.6189 227.971 36.6189C236.469 36.6189 245.097 41.7436 245.097 54.1338C245.097 66.524 236.469 71.6487 227.971 71.6487ZM227.971 62.8264C232.058 62.8264 235.107 60.1018 235.107 54.1338C235.107 48.1658 232.058 45.4412 227.971 45.4412C223.82 45.4412 220.771 48.1658 220.771 54.1338C220.771 60.1018 223.82 62.8264 227.971 62.8264Z" fill="black"/>
</svg>
