<svg width="39" height="39" viewBox="0 0 39 39" fill="none" xmlns="http://www.w3.org/2000/svg">
<rect width="38.7998" height="38.7998" rx="19.3999" fill="#FF1600"/>
<path d="M29.1006 21.0134H21.0173V29.0967C21.0173 29.5254 20.8469 29.9366 20.5438 30.2398C20.2406 30.543 19.8294 30.7133 19.4006 30.7133C18.9718 30.7133 18.5606 30.543 18.2575 30.2398C17.9543 29.9366 17.7839 29.5254 17.7839 29.0967V21.0134H9.70064C9.27188 21.0134 8.86068 20.843 8.55749 20.5398C8.25431 20.2367 8.08398 19.8255 8.08398 19.3967C8.08398 18.9679 8.25431 18.5567 8.55749 18.2535C8.86068 17.9504 9.27188 17.78 9.70064 17.78H17.7839V9.69674C17.7839 9.26797 17.9543 8.85677 18.2575 8.55359C18.5606 8.2504 18.9718 8.08008 19.4006 8.08008C19.8294 8.08008 20.2406 8.2504 20.5438 8.55359C20.8469 8.85677 21.0173 9.26797 21.0173 9.69674V17.78H29.1006C29.5293 17.78 29.9405 17.9504 30.2437 18.2535C30.5469 18.5567 30.7172 18.9679 30.7172 19.3967C30.7172 19.8255 30.5469 20.2367 30.2437 20.5398C29.9405 20.843 29.5293 21.0134 29.1006 21.0134Z" fill="white"/>
</svg>
